<?xml version="1.0" encoding="UTF-8"?>
<svg width="52px" height="52px" viewBox="0 0 52 52" version="1.1" xmlns="http://www.w3.org/2000/svg" xmlns:xlink="http://www.w3.org/1999/xlink">
    <!-- Generator: Sketch 43.1 (39012) - http://www.bohemiancoding.com/sketch -->
    <title>Group 2</title>
    <desc>Created with Sketch.</desc>
    <defs></defs>
    <g id="Page-1" stroke="none" stroke-width="1" fill="none" fill-rule="evenodd" opacity="0.771569293">
        <g id="ai" fill="#000000">
            <g id="Group-2">
                <path d="M30.8362751,9.03806538 L40.6363082,9.03806538 C43.6654143,9.03806538 45.9817512,11.3080996 45.9817512,14.2766551 L45.9817512,40.4696572 C45.9817512,43.4381595 43.6654143,45.7081937 40.6363082,45.7081937 L10.3454647,45.7081937 C7.49455093,45.7081937 5.00002175,43.4381595 5.00002175,40.4696572 L5.00002175,14.2766551 C5.00002175,11.3080996 7.49455093,9.03806538 10.3454647,9.03806538 L24.5999793,9.03806538 L24.5999793,2.92637733 C24.5999793,2.40253967 24.9563639,2.05327903 25.4908865,2.05327903 C26.025409,2.05327903 26.3817393,2.40253967 26.3817393,2.92637733 L26.3817393,9.03806538 C26.3817393,9.91116367 25.4908865,10.784262 24.5999793,10.784262 L10.3454647,10.784262 C8.38540371,10.784262 6.78183607,12.3558282 6.78183607,14.2766551 L6.78183607,40.4696572 C6.78183607,42.3904309 8.38540371,43.9619971 10.3454647,43.9619971 L40.6363082,43.9619971 C42.5963149,43.9619971 44.1998825,42.3904309 44.1998825,40.4696572 L44.1998825,14.2766551 C44.1998825,12.3558282 42.5963149,10.784262 40.6363082,10.784262 L30.8362751,10.784262 C30.3017525,10.784262 29.9454223,10.4350013 29.9454223,9.91116367 C29.9454223,9.38732601 30.3017525,9.03806538 30.8362751,9.03806538 Z M17.5,32 C14.4624339,32 12,29.5375661 12,26.5 C12,23.4624339 14.4624339,21 17.5,21 C20.5375661,21 23,23.4624339 23,26.5 C23,29.5375661 20.5375661,32 17.5,32 Z M17.5,30 C19.4329966,30 21,28.4329966 21,26.5 C21,24.5670034 19.4329966,23 17.5,23 C15.5670034,23 14,24.5670034 14,26.5 C14,28.4329966 15.5670034,30 17.5,30 Z M33.5,32 C30.4624339,32 28,29.5375661 28,26.5 C28,23.4624339 30.4624339,21 33.5,21 C36.5375661,21 39,23.4624339 39,26.5 C39,29.5375661 36.5375661,32 33.5,32 Z M33.5,30 C35.4329966,30 37,28.4329966 37,26.5 C37,24.5670034 35.4329966,23 33.5,23 C31.5670034,23 30,24.5670034 30,26.5 C30,28.4329966 31.5670034,30 33.5,30 Z" id="Combined-Shape"></path>
            </g>
        </g>
    </g>
</svg>