<?xml version="1.0" encoding="UTF-8"?>
<svg width="49px" height="48px" viewBox="0 0 49 48" version="1.1" xmlns="http://www.w3.org/2000/svg" xmlns:xlink="http://www.w3.org/1999/xlink">
    <!-- Generator: Sketch 43.1 (39012) - http://www.bohemiancoding.com/sketch -->
    <title>Group 3</title>
    <desc>Created with Sketch.</desc>
    <defs></defs>
    <g id="Page-1" stroke="none" stroke-width="1" fill="none" fill-rule="evenodd">
        <g id="AI官网" transform="translate(-1034.000000, -778.000000)" fill-rule="nonzero" fill="#000000">
            <g id="Group-3" transform="translate(1033.000000, 776.000000)">
                <g id="yonghu">
                    <path d="M16.5066224,27 L34.4887752,27 C35.0410599,27 35.4887752,26.5522847 35.4887752,26 C35.4887752,25.4477153 35.0410599,25 34.4887752,25 L16.5066224,25 C15.9543376,25 15.5066224,25.4477153 15.5066224,26 C15.5066224,26.5522847 15.9543376,27 16.5066224,27 Z" id="Line"></path>
                    <path d="M3,8.96357073 L3,3.23854283 C3,2.68625808 2.55228475,2.23854283 2,2.23854283 C1.44771525,2.23854283 1,2.68625808 1,3.23854283 L1,8.96357073 C1,9.51585548 1.44771525,9.96357073 2,9.96357073 C2.55228475,9.96357073 3,9.51585548 3,8.96357073 Z" id="Line"></path>
                    <path d="M1,43.2385428 L1,48.9635707 C1,49.5158555 1.44771525,49.9635707 2,49.9635707 C2.55228475,49.9635707 3,49.5158555 3,48.9635707 L3,43.2385428 C3,42.6862581 2.55228475,42.2385428 2,42.2385428 C1.44771525,42.2385428 1,42.6862581 1,43.2385428 Z" id="Line-Copy-12"></path>
                    <path d="M50,8.96357073 L50,3.23854283 C50,2.68625808 49.5522847,2.23854283 49,2.23854283 C48.4477153,2.23854283 48,2.68625808 48,3.23854283 L48,8.96357073 C48,9.51585548 48.4477153,9.96357073 49,9.96357073 C49.5522847,9.96357073 50,9.51585548 50,8.96357073 Z" id="Line-Copy-10"></path>
                    <path d="M50,48.9635707 L50,43.2385428 C50,42.6862581 49.5522847,42.2385428 49,42.2385428 C48.4477153,42.2385428 48,42.6862581 48,43.2385428 L48,48.9635707 C48,49.5158555 48.4477153,49.9635707 49,49.9635707 C49.5522847,49.9635707 50,49.5158555 50,48.9635707 Z" id="Line-Copy-14"></path>
                    <path d="M2.22150406,4 L7.53760139,4 C8.08988614,4 8.53760139,3.55228475 8.53760139,3 C8.53760139,2.44771525 8.08988614,2 7.53760139,2 L2.22150406,2 C1.66921931,2 1.22150406,2.44771525 1.22150406,3 C1.22150406,3.55228475 1.66921931,4 2.22150406,4 Z" id="Line"></path>
                    <path d="M2.22150406,50 L7.53760139,50 C8.08988614,50 8.53760139,49.5522847 8.53760139,49 C8.53760139,48.4477153 8.08988614,48 7.53760139,48 L2.22150406,48 C1.66921931,48 1.22150406,48.4477153 1.22150406,49 C1.22150406,49.5522847 1.66921931,50 2.22150406,50 Z" id="Line-Copy-13"></path>
                    <path d="M43.2215041,4 L48.5376014,4 C49.0898861,4 49.5376014,3.55228475 49.5376014,3 C49.5376014,2.44771525 49.0898861,2 48.5376014,2 L43.2215041,2 C42.6692193,2 42.2215041,2.44771525 42.2215041,3 C42.2215041,3.55228475 42.6692193,4 43.2215041,4 Z" id="Line-Copy-11"></path>
                    <path d="M43.2215041,50 L48.5376014,50 C49.0898861,50 49.5376014,49.5522847 49.5376014,49 C49.5376014,48.4477153 49.0898861,48 48.5376014,48 L43.2215041,48 C42.6692193,48 42.2215041,48.4477153 42.2215041,49 C42.2215041,49.5522847 42.6692193,50 43.2215041,50 Z" id="Line-Copy-15"></path>
                    <path d="M10.3766938,23.91224 C10.0025457,24.4302614 9.62832448,24.9543544 9.27853078,25.4526084 C9.22345762,25.5311062 9.22345762,25.5311062 9.16842986,25.6097502 C8.36812366,26.7543267 7.85043113,27.5420478 7.65826911,27.9465384 C7.20888968,28.8924575 6.98724938,29.538034 7.00042775,30.3181916 C7.02349139,31.6835546 7.96108626,32.6099788 9.64123147,32.7637412 C10.6416177,32.8552939 11.419655,32.9289097 12.0035739,32.9864705 C12.0018513,34.1814978 12.0109032,35.4936877 12.0372205,36.7510007 C12.0924376,39.3890096 12.1966744,40.9930962 12.4363836,41.6121189 C13.0546208,43.2086479 13.7464276,43.6996216 15.8460445,43.8801036 C16.5198141,43.9380205 17.5016296,43.9437464 18.7264576,43.9096658 C19.3415303,43.8925515 19.9949181,43.8658925 20.6638073,43.8322828 C21.0898564,43.810875 21.4965852,43.7879422 21.8703669,43.7649991 C22.095171,43.7512004 22.2595329,43.7404298 22.3497636,43.7342012 C22.9007372,43.6961681 23.3165576,43.2186838 23.2785245,42.6677101 C23.2404913,42.1167365 22.763007,41.7009161 22.2120334,41.7389493 C22.1266721,41.7448417 21.9673393,41.7552827 21.7478354,41.7687561 C21.3811037,41.7912665 20.9816843,41.8137872 20.5634398,41.8348028 C19.9085006,41.8677115 19.2696445,41.8937777 18.6708296,41.9104396 C17.5168582,41.9425486 16.5958032,41.9371771 16.0173318,41.887452 C14.6590907,41.7706982 14.6362255,41.7544708 14.301431,40.8899011 C14.1914224,40.6058161 14.0836213,38.946878 14.0367825,36.7091471 C14.006396,35.257427 13.9993171,33.7261712 14.0053409,32.3955853 C14.0060013,32.2496981 14.0066629,32.146331 14.0070944,32.0929429 C14.0112059,31.5833934 13.6315118,31.152243 13.1255302,31.0919087 C13.0406818,31.0817913 12.8351263,31.0596453 12.4640113,31.0223924 C11.851812,30.9609393 10.9863533,30.8784853 9.82350444,30.7720644 C9.12504878,30.7081436 9.00530145,30.589823 9.00014248,30.2844125 C8.99398826,29.9200841 9.14792731,29.4717025 9.46477392,28.8047577 C9.58735129,28.546739 10.0894643,27.7827237 10.8074972,26.7558123 C10.8614074,26.6787655 10.8614074,26.6787655 10.9154251,26.601772 C11.259509,26.1116512 11.6287281,25.5945636 11.9980201,25.0832656 C12.2196007,24.7764796 12.391742,24.5401056 12.4895863,24.4065881 C12.6122382,24.2392184 12.679788,24.0378395 12.6828733,23.8303627 C12.6842375,23.7386252 12.69293,23.5485251 12.7151288,23.2744319 C12.7529293,22.8077018 12.8165132,22.2851472 12.9118997,21.7212282 C13.1842595,20.1110542 13.6548582,18.502567 14.3672964,17.0111958 C16.4932491,12.5608666 20.2630009,10.0508951 26.2808536,10.3715636 C32.070897,10.680093 35.7074262,13.1821054 37.7300174,17.1971427 C38.4632092,18.6525985 38.9333139,20.2204678 39.1887449,21.7999078 C39.3492061,22.7921087 39.3991904,23.5985004 39.3922371,24.1166369 C39.3775906,24.6802346 39.8134229,25.1395254 40.3655181,25.1539942 C40.9176133,25.1684629 41.3769041,24.7326306 41.3913729,24.1805354 C41.4004777,23.5159873 41.3434373,22.5957592 41.1630928,21.4806113 C40.8769847,19.7114815 40.3490042,17.9505878 39.5161817,16.2973553 C37.1787947,11.6574182 32.9124813,8.72210043 26.387275,8.37439696 C19.5178433,8.00835102 15.021346,11.0022034 12.562639,16.1490987 C11.7629134,17.8231916 11.2412331,19.6062732 10.9399115,21.3876678 C10.8345094,22.0107979 10.7639716,22.5905031 10.7216561,23.1129805 C10.7107282,23.2479103 10.7025083,23.3675694 10.696508,23.4709106 C10.6074767,23.5933094 10.499523,23.7421788 10.3766938,23.91224 Z" id="Path-4"></path>
                </g>
            </g>
        </g>
    </g>
</svg>