<?xml version="1.0" encoding="UTF-8"?>
<svg width="52px" height="52px" viewBox="0 0 52 52" version="1.1" xmlns="http://www.w3.org/2000/svg" xmlns:xlink="http://www.w3.org/1999/xlink">
    <!-- Generator: Sketch 43.1 (39012) - http://www.bohemiancoding.com/sketch -->
    <title>Group 2</title>
    <desc>Created with Sketch.</desc>
    <defs></defs>
    <g id="Page-1" stroke="none" stroke-width="1" fill="none" fill-rule="evenodd">
        <g id="AI官网" transform="translate(-432.000000, -776.000000)" fill-rule="nonzero" fill="#000000">
            <g id="Group-2" transform="translate(432.000000, 776.000000)">
                <g id="yuyan" transform="translate(0.000000, 1.925926)">
                    <path d="M24.1382979,40.3846154 L24.1382979,47.0778471 C24.1382979,47.6088901 24.5860131,48.0393855 25.1382979,48.0393855 C25.6905826,48.0393855 26.1382979,47.6088901 26.1382979,47.0778471 L26.1382979,40.3846154 C26.1382979,39.8535724 25.6905826,39.4230769 25.1382979,39.4230769 C24.5860131,39.4230769 24.1382979,39.8535724 24.1382979,40.3846154 Z" id="Line"></path>
                    <path d="M14.9999619,48.0393855 L35.0085531,48.0393855 C35.5608379,48.0393855 36.0085531,47.6088901 36.0085531,47.0778471 C36.0085531,46.546804 35.5608379,46.1163086 35.0085531,46.1163086 L14.9999619,46.1163086 C14.4476772,46.1163086 13.9999619,46.546804 13.9999619,47.0778471 C13.9999619,47.6088901 14.4476772,48.0393855 14.9999619,48.0393855 Z" id="Line"></path>
                    <path d="M16.5576241,11.4132362 L16.5576241,22.5264728 C16.5576241,27.0758885 20.4005957,30.7692308 25.1382979,30.7692308 C29.8784239,30.7692308 33.7189716,27.0789507 33.7189716,22.5264728 L33.7189716,11.4132362 C33.7189716,6.86382047 29.876,3.17047817 25.1382979,3.17047817 C20.3981719,3.17047817 16.5576241,6.86075823 16.5576241,11.4132362 Z M14.5576241,11.4132362 C14.5576241,5.79880057 19.2934683,1.24740125 25.1382979,1.24740125 C30.9818426,1.24740125 35.7189716,5.80295772 35.7189716,11.4132362 L35.7189716,22.5264728 C35.7189716,28.1409084 30.9831275,32.6923077 25.1382979,32.6923077 C19.2947531,32.6923077 14.5576241,28.1367512 14.5576241,22.5264728 L14.5576241,11.4132362 Z" id="Rectangle-3"></path>
                    <path d="M42.2765957,17.3261769 L42.2765957,24.0529953 C42.2765957,32.4426636 34.6209898,39.2729268 25.1382979,39.2729268 C15.6543946,39.2729268 8,32.4462578 8,24.0529953 L8,17.3261769 C8,16.7951339 7.55228475,16.3646385 7,16.3646385 C6.44771525,16.3646385 6,16.7951339 6,17.3261769 L6,24.0529953 C6,33.5420074 14.5820343,41.1960037 25.1382979,41.1960037 C35.6935002,41.1960037 44.2765957,33.5382426 44.2765957,24.0529953 L44.2765957,17.3261769 C44.2765957,16.7951339 43.8288805,16.3646385 43.2765957,16.3646385 C42.724311,16.3646385 42.2765957,16.7951339 42.2765957,17.3261769 Z" id="Rectangle-3"></path>
                </g>
            </g>
        </g>
    </g>
</svg>