<?xml version="1.0" encoding="UTF-8"?>
<svg width="50px" height="50px" viewBox="0 0 50 50" version="1.1" xmlns="http://www.w3.org/2000/svg" xmlns:xlink="http://www.w3.org/1999/xlink" style="background: #FFFFFF;">
    <!-- Generator: Sketch 43.1 (39012) - http://www.bohemiancoding.com/sketch -->
    <title>shuju</title>
    <desc>Created with Sketch.</desc>
    <defs></defs>
    <g id="Page-1" stroke="none" stroke-width="1" fill="none" fill-rule="evenodd">
        <g id="shuju" fill-rule="nonzero" fill="#2C2C2C">
            <path d="M36.705609,9.40571273 L34.0584576,6.46118164 L40.8500977,6.44189453 L40.8692627,14.0371094 L38.0446111,10.8951377 L29.2131957,19.7265532 L20.3278694,10.8412269 L11.1582787,20.0108177 C10.7677544,20.401342 10.1345894,20.401342 9.74406509,20.0108177 C9.3535408,19.6202934 9.3535408,18.9871284 9.74406509,18.5966042 L20.3278694,8.01279981 L29.2131957,16.898126 L36.705609,9.40571273 Z M13,40.5 C13,41.0522847 12.5522847,41.5 12,41.5 C11.4477153,41.5 11,41.0522847 11,40.5 L11,24.5 C11,23.9477153 11.4477153,23.5 12,23.5 C12.5522847,23.5 13,23.9477153 13,24.5 L13,40.5 Z M30,40.5 C30,41.0522847 29.5522847,41.5 29,41.5 C28.4477153,41.5 28,41.0522847 28,40.5 L28,24.5 C28,23.9477153 28.4477153,23.5 29,23.5 C29.5522847,23.5 30,23.9477153 30,24.5 L30,40.5 Z M21,40.5 C21,41.0522847 20.5522847,41.5 20,41.5 C19.4477153,41.5 19,41.0522847 19,40.5 L19,19.9756242 C19,19.4233395 19.4477153,18.9756242 20,18.9756242 C20.5522847,18.9756242 21,19.4233395 21,19.9756242 L21,40.5 Z M38,40.5 C38,41.0522847 37.5522847,41.5 37,41.5 C36.4477153,41.5 36,41.0522847 36,40.5 L36,19.9756242 C36,19.4233395 36.4477153,18.9756242 37,18.9756242 C37.5522847,18.9756242 38,19.4233395 38,19.9756242 L38,40.5 Z" id="Combined-Shape"></path>
        </g>
    </g>
</svg>