<?xml version="1.0" encoding="UTF-8"?>
<svg width="39px" height="39px" viewBox="0 0 39 39" version="1.1" xmlns="http://www.w3.org/2000/svg" xmlns:xlink="http://www.w3.org/1999/xlink">
    <!-- Generator: Sketch 43.1 (39012) - http://www.bohemiancoding.com/sketch -->
    <title>Group 6</title>
    <desc>Created with Sketch.</desc>
    <defs></defs>
    <g id="Page-1" stroke="none" stroke-width="1" fill="none" fill-rule="evenodd">
        <g id="AI官网" transform="translate(-1250.000000, -783.000000)" fill-rule="nonzero" fill="#000000">
            <g id="Group" transform="translate(-4.000000, -51.000000)">
                <g id="Group-6" transform="translate(1249.000000, 827.000000)">
                    <g id="zhineng">
                        <path d="M14.4017391,33.28 C9.72427148,33.28 5.92347826,29.5600747 5.92347826,24.96 C5.92347826,20.3599253 9.72427148,16.64 14.4017391,16.64 C19.0792068,16.64 22.88,20.3599253 22.88,24.96 C22.88,29.5600747 19.0792068,33.28 14.4017391,33.28 Z M14.4017391,31.2 C17.9403476,31.2 20.8,28.4011912 20.8,24.96 C20.8,21.5188088 17.9403476,18.72 14.4017391,18.72 C10.8631307,18.72 8.00347826,21.5188088 8.00347826,24.96 C8.00347826,28.4011912 10.8631307,31.2 14.4017391,31.2 Z" id="Oval"></path>
                        <path d="M36.7617391,20.5123404 C33.0457272,20.5123404 30.0243478,17.5552457 30.0243478,13.8961702 C30.0243478,10.2370947 33.0457272,7.28 36.7617391,7.28 C40.4777511,7.28 43.4991304,10.2370947 43.4991304,13.8961702 C43.4991304,17.5552457 40.4777511,20.5123404 36.7617391,20.5123404 Z M36.7617391,18.4323404 C39.3388919,18.4323404 41.4191304,16.3963622 41.4191304,13.8961702 C41.4191304,11.3959782 39.3388919,9.36 36.7617391,9.36 C34.1845864,9.36 32.1043478,11.3959782 32.1043478,13.8961702 C32.1043478,16.3963622 34.1845864,18.4323404 36.7617391,18.4323404 Z" id="Oval-Copy"></path>
                        <path d="M22.4376064,22.7258244 L31.7071716,17.5479521 C32.2086197,17.267849 32.3880552,16.6342765 32.1079521,16.1328284 C31.827849,15.6313803 31.1942765,15.4519448 30.6928284,15.7320479 L21.4232632,20.9099203 C20.9218151,21.1900234 20.7423796,21.8235958 21.0224827,22.3250439 C21.3025858,22.826492 21.9361583,23.0059276 22.4376064,22.7258244 Z" id="Line"></path>
                        <path d="M36.0382609,45.7821277 C31.6479813,45.7821277 28.08,42.2900609 28.08,37.9710638 C28.08,33.6520668 31.6479813,30.16 36.0382609,30.16 C40.4285405,30.16 43.9965217,33.6520668 43.9965217,37.9710638 C43.9965217,42.2900609 40.4285405,45.7821277 36.0382609,45.7821277 Z M36.0382609,43.7021277 C39.2896812,43.7021277 41.9165217,41.1311774 41.9165217,37.9710638 C41.9165217,34.8109503 39.2896812,32.24 36.0382609,32.24 C32.7868405,32.24 30.16,34.8109503 30.16,37.9710638 C30.16,41.1311774 32.7868405,43.7021277 36.0382609,43.7021277 Z" id="Oval-Copy-2"></path>
                        <path d="M20.3663175,30.4165746 L28.5958827,35.2182767 C29.0919873,35.5077387 29.7288148,35.3402218 30.0182767,34.8441173 C30.3077387,34.3480127 30.1402218,33.7111852 29.6441173,33.4217233 L21.4145521,28.6200211 C20.9184475,28.3305592 20.28162,28.4980761 19.9921581,28.9941806 C19.7026961,29.4902851 19.870213,30.1271126 20.3663175,30.4165746 Z" id="Line"></path>
                    </g>
                </g>
            </g>
        </g>
    </g>
</svg>