<?xml version="1.0" encoding="UTF-8"?>
<svg width="44px" height="46px" viewBox="0 0 44 46" version="1.1" xmlns="http://www.w3.org/2000/svg" xmlns:xlink="http://www.w3.org/1999/xlink">
    <!-- Generator: Sketch 43.1 (39012) - http://www.bohemiancoding.com/sketch -->
    <title>Group 5</title>
    <desc>Created with Sketch.</desc>
    <defs></defs>
    <g id="Page-1" stroke="none" stroke-width="1" fill="none" fill-rule="evenodd">
        <g id="AI官网" transform="translate(-660.000000, -778.000000)" fill-rule="nonzero" fill="#000000">
            <g id="Group" transform="translate(-4.000000, -51.000000)">
                <g id="Group-5" transform="translate(661.000000, 827.000000)">
                    <g id="tupu">
                        <path d="M13,16 L13,32.5200005 C13,33.0722852 13.4477153,33.5200005 14,33.5200005 C14.5522847,33.5200005 15,33.0722852 15,32.5200005 L15,16 C15,15.4477153 14.5522847,15 14,15 C13.4477153,15 13,15.4477153 13,16 Z" id="Line"></path>
                        <path d="M24,21 L24,33.0415946 C24,33.5938793 24.4477153,34.0415946 25,34.0415946 C25.5522847,34.0415946 26,33.5938793 26,33.0415946 L26,21 C26,20.4477153 25.5522847,20 25,20 C24.4477153,20 24,20.4477153 24,21 Z" id="Line"></path>
                        <path d="M35,13.9688194 L35,30.0200005 C35,30.5722852 35.4477153,31.0200005 36,31.0200005 C36.5522847,31.0200005 37,30.5722852 37,30.0200005 L37,13.9688194 C37,13.4165346 36.5522847,12.9688194 36,12.9688194 C35.4477153,12.9688194 35,13.4165346 35,13.9688194 Z" id="Line-Copy-7"></path>
                        <path d="M5.00866649,47.4623361 C4.34629273,47.9303105 3.43164062,47.4566214 3.43164062,46.6456102 L3.43164062,13.3408203 C3.43164062,13.0132596 3.59206323,12.7064657 3.86107257,12.51957 L13.0222054,6.1548239 C13.3172355,5.94985017 13.6995423,5.91888106 14.0237174,6.07369551 L24.7929463,11.2166956 L35.3394578,2.67693276 C35.6673521,2.41142887 36.1266062,2.38028202 36.4873463,2.59908235 L45.9502369,8.33862621 C46.2491143,8.51990481 46.4316406,8.84408914 46.4316406,9.19364542 L46.4316406,43.947838 C46.4316406,44.8140298 45.4053367,45.2705611 44.7620162,44.6905378 L35.9263601,36.7242355 L25.7959205,44.7323297 C25.5183307,44.951764 25.1454434,45.008162 24.8153766,44.880634 L14.3732937,40.8461233 L5.00866649,47.4623361 Z M5.43164063,44.7146981 L13.6568608,38.903489 C13.9302224,38.710356 14.2820807,38.6667899 14.5942914,38.7874188 L25.0035742,42.8092566 L35.3486107,34.6315239 C35.7312041,34.3290845 36.2761628,34.3467427 36.6383745,34.6733158 L44.4316406,41.6997905 L44.4316406,9.75667801 L36.0514733,4.67384025 L25.5609328,13.1682821 C25.2612275,13.4109606 24.8486876,13.4596801 24.5006967,13.293492 L13.6861553,8.12885223 L5.43164062,13.8637205 L5.43164063,44.7146981 Z" id="Path-2"></path>
                    </g>
                </g>
            </g>
        </g>
    </g>
</svg>